<?xml version="1.0" encoding="utf-8"?>
<!-- Generator: Adobe Illustrator 21.1.0, SVG Export Plug-In . SVG Version: 6.00 Build 0)  -->
<svg version="1.1" id="Layer_1" xmlns="http://www.w3.org/2000/svg" xmlns:xlink="http://www.w3.org/1999/xlink" x="0px" y="0px"
	 viewBox="0 0 32 32" style="enable-background:new 0 0 32 32;" xml:space="preserve">
<style type="text/css">
	.st0{fill:#FFFFFF;}
</style>
<path d="M4,16c0,6.6,5.4,12,12,12s12-5.4,12-12c0-0.5,0-1-0.1-1.4C27.5,14.8,27,15,26.5,15c-1.1,0-2-0.7-2.3-1.6
	C23.5,13.8,22.8,14,22,14c-2.2,0-4-1.8-4-4c0-0.7,0.2-1.4,0.6-2c0,0,0,0-0.1,0C17.1,8,16,6.9,16,5.5c0-0.6,0.2-1.1,0.5-1.5
	c-0.2,0-0.3,0-0.5,0C9.4,4,4,9.4,4,16z"/>
<path class="st0" d="M22,16c-3.3,0-6-2.7-6-6c0-0.2,0-0.5,0-0.7c-1-0.7-1.8-1.8-2-3.1C9.5,7.1,6,11.2,6,16c0,5.5,4.5,10,10,10
	c5.2,0,9.5-4,10-9c-0.9-0.1-1.8-0.5-2.5-1.2C23,15.9,22.5,16,22,16z"/>
<circle class="st0" cx="11" cy="15" r="2"/>
<circle class="st0" cx="12.5" cy="20.5" r="1.5"/>
<circle class="st0" cx="14" cy="11" r="1"/>
<circle class="st0" cx="16" cy="16" r="1"/>
<circle class="st0" cx="19.5" cy="21.5" r="1.5"/>
<circle cx="22" cy="10" r="1"/>
<circle cx="23.5" cy="5.5" r="1.5"/>
<circle cx="27" cy="11" r="1"/>
<path class="st0" d="M6,16c0,5.5,4.5,10,10,10c5.2,0,9.5-4,10-9c-0.9-0.1-1.8-0.5-2.5-1.2C23,15.9,22.5,16,22,16c-3.3,0-6-2.7-6-6
	c0-0.2,0-0.5,0-0.7c-1-0.7-1.8-1.8-2-3.1C9.5,7.1,6,11.2,6,16z"/>
<circle cx="16" cy="16" r="1"/>
<circle cx="12.5" cy="20.5" r="1.5"/>
<circle cx="11" cy="15" r="2"/>
<circle cx="14" cy="11" r="1"/>
<circle cx="19.5" cy="21.5" r="1.5"/>
</svg>
